<?xml version="1.0" encoding="UTF-8" standalone="no"?>
<svg
   xmlns:dc="http://purl.org/dc/elements/1.1/"
   xmlns:cc="http://creativecommons.org/ns#"
   xmlns:rdf="http://www.w3.org/1999/02/22-rdf-syntax-ns#"
   xmlns:svg="http://www.w3.org/2000/svg"
   xmlns="http://www.w3.org/2000/svg"
   xmlns:sodipodi="http://sodipodi.sourceforge.net/DTD/sodipodi-0.dtd"
   xmlns:inkscape="http://www.inkscape.org/namespaces/inkscape"
   width="25"
   height="24"
   viewBox="0 0 25 24"
   fill="none"
   version="1.1"
   id="svg9"
   sodipodi:docname="closeWhite.svg"
   inkscape:version="1.0.2-2 (e86c870879, 2021-01-15)">
  <metadata
     id="metadata15">
    <rdf:RDF>
      <cc:Work
         rdf:about="">
        <dc:format>image/svg+xml</dc:format>
        <dc:type
           rdf:resource="http://purl.org/dc/dcmitype/StillImage" />
      </cc:Work>
    </rdf:RDF>
  </metadata>
  <defs
     id="defs13" />
  <sodipodi:namedview
     pagecolor="#ffffff"
     bordercolor="#666666"
     borderopacity="1"
     objecttolerance="10"
     gridtolerance="10"
     guidetolerance="10"
     inkscape:pageopacity="0"
     inkscape:pageshadow="2"
     inkscape:window-width="3840"
     inkscape:window-height="1529"
     id="namedview11"
     showgrid="false"
     inkscape:zoom="40.52"
     inkscape:cx="12.5"
     inkscape:cy="12"
     inkscape:window-x="1912"
     inkscape:window-y="-8"
     inkscape:window-maximized="1"
     inkscape:current-layer="svg9" />
  <mask
     id="mask0_75592_9957"
     style="mask-type:alpha"
     maskUnits="userSpaceOnUse"
     x="0"
     y="0"
     width="25"
     height="24">
    <rect
       x="0.144531"
       width="24"
       height="24"
       fill="#D9D9D9"
       id="rect2" />
  </mask>
  <g
     mask="url(#mask0_75592_9957)"
     id="g7"
     style="fill:#ffffff;fill-opacity:1">
    <path
       d="M12.1443 13.4L7.24434 18.3C7.061 18.4834 6.82767 18.575 6.54434 18.575C6.261 18.575 6.02767 18.4834 5.84434 18.3C5.661 18.1167 5.56934 17.8834 5.56934 17.6C5.56934 17.3167 5.661 17.0834 5.84434 16.9L10.7443 12L5.84434 7.10005C5.661 6.91672 5.56934 6.68338 5.56934 6.40005C5.56934 6.11672 5.661 5.88338 5.84434 5.70005C6.02767 5.51672 6.261 5.42505 6.54434 5.42505C6.82767 5.42505 7.061 5.51672 7.24434 5.70005L12.1443 10.6L17.0443 5.70005C17.2277 5.51672 17.461 5.42505 17.7443 5.42505C18.0277 5.42505 18.261 5.51672 18.4443 5.70005C18.6277 5.88338 18.7193 6.11672 18.7193 6.40005C18.7193 6.68338 18.6277 6.91672 18.4443 7.10005L13.5443 12L18.4443 16.9C18.6277 17.0834 18.7193 17.3167 18.7193 17.6C18.7193 17.8834 18.6277 18.1167 18.4443 18.3C18.261 18.4834 18.0277 18.575 17.7443 18.575C17.461 18.575 17.2277 18.4834 17.0443 18.3L12.1443 13.4Z"
       fill="#2A3647"
       id="path5"
       style="fill:#ffffff;fill-opacity:1" />
  </g>
</svg>
