<?xml version="1.0" encoding="UTF-8" standalone="no"?>
<svg
   xmlns:dc="http://purl.org/dc/elements/1.1/"
   xmlns:cc="http://creativecommons.org/ns#"
   xmlns:rdf="http://www.w3.org/1999/02/22-rdf-syntax-ns#"
   xmlns:svg="http://www.w3.org/2000/svg"
   xmlns="http://www.w3.org/2000/svg"
   xmlns:sodipodi="http://sodipodi.sourceforge.net/DTD/sodipodi-0.dtd"
   xmlns:inkscape="http://www.inkscape.org/namespaces/inkscape"
   width="25"
   height="24"
   viewBox="0 0 25 24"
   fill="none"
   version="1.1"
   id="svg4"
   sodipodi:docname="delete-blue.svg"
   inkscape:version="1.0.2-2 (e86c870879, 2021-01-15)">
  <metadata
     id="metadata10">
    <rdf:RDF>
      <cc:Work
         rdf:about="">
        <dc:format>image/svg+xml</dc:format>
        <dc:type
           rdf:resource="http://purl.org/dc/dcmitype/StillImage" />
        <dc:title></dc:title>
      </cc:Work>
    </rdf:RDF>
  </metadata>
  <defs
     id="defs8" />
  <sodipodi:namedview
     pagecolor="#ffffff"
     bordercolor="#666666"
     borderopacity="1"
     objecttolerance="10"
     gridtolerance="10"
     guidetolerance="10"
     inkscape:pageopacity="0"
     inkscape:pageshadow="2"
     inkscape:window-width="1918"
     inkscape:window-height="1520"
     id="namedview6"
     showgrid="false"
     inkscape:zoom="39.59798"
     inkscape:cx="11.790197"
     inkscape:cy="11.390185"
     inkscape:window-x="3833"
     inkscape:window-y="0"
     inkscape:window-maximized="0"
     inkscape:current-layer="svg4" />
  <path
     d="M 7.5,21 C 6.95,21 6.47917,20.8042 6.0875,20.4125 5.69583,20.0208 5.5,19.55 5.5,19 V 6 C 5.21667,6 4.979167,5.90417 4.7875,5.7125 4.595833,5.52083 4.5,5.28333 4.5,5 4.5,4.71667 4.595833,4.47917 4.7875,4.2875 4.979167,4.09583 5.21667,4 5.5,4 h 4 C 9.5,3.716667 9.59583,3.479167 9.7875,3.2875 9.97917,3.0958333 10.21667,3 10.5,3 h 4 c 0.2833,0 0.5208,0.095833 0.7125,0.2875 C 15.4042,3.479167 15.5,3.716667 15.5,4 h 4 c 0.2833,0 0.5208,0.09583 0.7125,0.2875 C 20.4042,4.47917 20.5,4.71667 20.5,5 20.5,5.28333 20.4042,5.52083 20.2125,5.7125 20.0208,5.90417 19.7833,6 19.5,6 v 13 c 0,0.55 -0.1958,1.0208 -0.5875,1.4125 C 18.5208,20.8042 18.05,21 17.5,21 Z m 0,-15 v 13 h 10 V 6 Z m 2,10 c 0,0.2833 0.09583,0.5208 0.2875,0.7125 C 9.97917,16.9042 10.21667,17 10.5,17 10.78333,17 11.02083,16.9042 11.2125,16.7125 11.40417,16.5208 11.5,16.2833 11.5,16 V 9 C 11.5,8.71667 11.40417,8.47917 11.2125,8.2875 11.02083,8.09583 10.78333,8 10.5,8 10.21667,8 9.97917,8.09583 9.7875,8.2875 9.59583,8.47917 9.5,8.71667 9.5,9 Z m 4,0 c 0,0.2833 0.09583,0.5208 0.2875,0.7125 C 13.97917,16.9042 14.2167,17 14.5,17 14.7833,17 15.0208,16.9042 15.2125,16.7125 15.4042,16.5208 15.5,16.2833 15.5,16 V 9 C 15.5,8.71667 15.4042,8.47917 15.2125,8.2875 15.0208,8.09583 14.7833,8 14.5,8 14.2167,8 13.97917,8.09583 13.7875,8.2875 13.59583,8.47917 13.5,8.71667 13.5,9 Z"
     fill="#29abe2"
     id="path2" />
</svg>
