<svg width="14" height="16" viewBox="0 0 14 16" fill="none" xmlns="http://www.w3.org/2000/svg">
<path d="M10.3333 13.1457L11.8958 11.5832C12.0486 11.4304 12.2396 11.354 12.4688 11.354C12.6979 11.354 12.8958 11.4304 13.0625 11.5832C13.2292 11.7498 13.3125 11.9478 13.3125 12.1769C13.3125 12.4061 13.2292 12.604 13.0625 12.7707L10.0833 15.7498C10 15.8332 9.90972 15.8922 9.8125 15.9269C9.71528 15.9616 9.61111 15.979 9.5 15.979C9.38889 15.979 9.28472 15.9616 9.1875 15.9269C9.09028 15.8922 9 15.8332 8.91667 15.7498L5.91667 12.7498C5.75 12.5832 5.67014 12.3887 5.67708 12.1665C5.68403 11.9443 5.77083 11.7498 5.9375 11.5832C6.10417 11.4304 6.29861 11.3505 6.52083 11.3436C6.74306 11.3366 6.9375 11.4165 7.10417 11.5832L8.66667 13.1457V7.99984C8.66667 7.76373 8.74653 7.56581 8.90625 7.40609C9.06597 7.24636 9.26389 7.1665 9.5 7.1665C9.73611 7.1665 9.93403 7.24636 10.0938 7.40609C10.2535 7.56581 10.3333 7.76373 10.3333 7.99984V13.1457ZM5.33333 2.854V7.99984C5.33333 8.23595 5.25347 8.43387 5.09375 8.59359C4.93403 8.75331 4.73611 8.83317 4.5 8.83317C4.26389 8.83317 4.06597 8.75331 3.90625 8.59359C3.74653 8.43387 3.66667 8.23595 3.66667 7.99984L3.66667 2.854L2.10417 4.4165C1.95139 4.56928 1.76042 4.64567 1.53125 4.64567C1.30208 4.64567 1.10417 4.56928 0.9375 4.4165C0.770833 4.24984 0.6875 4.05192 0.6875 3.82275C0.6875 3.59359 0.770833 3.39567 0.9375 3.229L3.91667 0.249838C4 0.166504 4.09028 0.107477 4.1875 0.0727549C4.28472 0.0380325 4.38889 0.0206709 4.5 0.0206709C4.61111 0.0206709 4.71528 0.0380325 4.8125 0.0727549C4.90972 0.107477 5 0.166504 5.08333 0.249838L8.08333 3.24984C8.25 3.4165 8.32986 3.61095 8.32292 3.83317C8.31597 4.05539 8.22917 4.24984 8.0625 4.4165C7.89583 4.56928 7.70139 4.64914 7.47917 4.65609C7.25694 4.66303 7.0625 4.58317 6.89583 4.4165L5.33333 2.854Z" fill="#2A3647"/>
</svg>
